# xmcd CD database file
#
# Track frame offsets:
#	150
#	8385
#	23487
#	30760
#	45092
#	60695
#	74267
#	84015
#	124320
#	134652
#
# Disc length: 2237 seconds
#
# Revision: 0
# Processed by: cddbd v1.5.1PL0 Copyright (c) Steve Scherf et al.
# Submitted via: CDex 1.51
#
DISCID=6808bb0a
DTITLE=MOFO Party Band - 10 Dynamite Hits
DYEAR=1997
DGENRE=Blues
TTITLE0=Don't Get Around Much Anymore
TTITLE1=My Baby's Sweeter
TTITLE2=High Temperature
TTITLE3=Everynight and Everyday
TTITLE4=Next Time You See Me
TTITLE5=Everytime You Come Around
TTITLE6=We're Ready
TTITLE7=What Have I Done?
TTITLE8="F"
TTITLE9=Phsyco Blues
EXTD=YEAR: 1997
EXTT0=
EXTT1=
EXTT2=
EXTT3=
EXTT4=
EXTT5=
EXTT6=
EXTT7=
EXTT8=
EXTT9=
PLAYORDER=
